<svg xmlns="http://www.w3.org/2000/svg" viewBox="0 0 445.32 151.46"><title>Asset 1</title><g id="Layer_2" data-name="Layer 2"><g id="Layer_1-2" data-name="Layer 1"><rect x="104.47" y="42.16" width="53.39" height="23.56"/><rect x="117.82" y="1.51" width="80.09" height="23.56"/><rect x="117.82" y="84.51" width="80.09" height="23.56"/><polygon points="95.33 2.05 61.17 2.05 27.86 45.76 27.86 62.11 63.41 108.07 99.13 108.07 53.15 52.25 95.33 2.05"/><rect y="2.05" width="27.56" height="30.56"/><rect y="77.51" width="27.56" height="30.56"/><path d="M359.22,55.23H332.75A55.29,55.29,0,0,0,388,110.46V84A28.79,28.79,0,0,1,359.22,55.23Z"/><path d="M388,0V26.47a28.79,28.79,0,0,1,28.75,28.76h26.48A55.3,55.3,0,0,0,388,0Z"/><polygon points="283.37 42.07 247.25 42.07 247.25 1.95 220.19 1.95 220.19 108.51 247.25 108.51 247.25 67.44 283.37 67.44 283.37 108.51 310.43 108.51 310.43 67.38 283.37 67.38 283.37 42.07"/><rect x="283.37" y="1.95" width="27.06" height="40.03"/><polygon points="433.49 8.7 435.12 8.7 435.12 3.12 436.96 3.12 436.96 1.55 431.65 1.55 431.65 3.12 433.49 3.12 433.49 8.7"/><polygon points="443.69 1.55 441.75 4.72 439.81 1.55 438.18 1.55 438.18 8.7 439.81 8.7 439.81 4.54 441.66 7.57 441.84 7.57 443.69 4.54 443.69 8.7 445.32 8.7 445.32 1.55 443.69 1.55"/><path d="M76.1,134.26H69.72v16.87h3.85v-5.31H76.1a5.78,5.78,0,1,0,0-11.56Zm0,8H73.57v-4.34H76.1a2.17,2.17,0,0,1,0,4.34Z"/><path d="M99.08,133.92a8.77,8.77,0,1,0,8.77,8.77A8.7,8.7,0,0,0,99.08,133.92Zm0,13.78a5,5,0,1,1,4.92-5A4.8,4.8,0,0,1,99.08,147.7Z"/><path d="M123.39,141.05c-2.63-.79-3-1.32-3-2.09s.61-1.28,1.81-1.28a3,3,0,0,1,2.92,1.95l3.25-1.9a6.55,6.55,0,0,0-6.17-3.81c-2.91,0-5.66,1.88-5.66,5.14s2.46,4.43,5,5.13,3.5,1.1,3.5,2.14c0,.65-.46,1.37-2.29,1.37a3.53,3.53,0,0,1-3.54-2.33l-3.33,1.92c.94,2.49,3.2,4.17,6.75,4.17s6.26-1.92,6.26-5.18C128.81,142.72,125.94,141.83,123.39,141.05Z"/><rect x="137.84" y="134.26" width="3.85" height="16.86"/><polygon points="150.61 137.97 154.95 137.97 154.95 151.13 158.8 151.13 158.8 137.97 163.14 137.97 163.14 134.26 150.61 134.26 150.61 137.97"/><rect x="172.05" y="134.26" width="3.85" height="16.86"/><polygon points="192.53 146.67 188.79 134.26 184.58 134.26 190.07 151.13 194.99 151.13 200.48 134.26 196.26 134.26 192.53 146.67"/><polygon points="213 144.43 219.03 144.43 219.03 140.77 213 140.77 213 137.97 219.63 137.97 219.63 134.26 209.15 134.26 209.15 151.13 219.75 151.13 219.75 147.41 213 147.41 213 144.43"/><path d="M250.44,137.68a4.35,4.35,0,0,1,3.9,2.07l3.33-1.92a8.41,8.41,0,0,0-7.23-3.91,8.77,8.77,0,0,0,0,17.54,8.37,8.37,0,0,0,7.23-3.9l-3.33-1.93a4.33,4.33,0,0,1-3.9,2.07,5,5,0,0,1,0-10Z"/><polygon points="275.85 140.72 270.55 140.72 270.55 134.26 266.7 134.26 266.7 151.13 270.55 151.13 270.55 144.43 275.85 144.43 275.85 151.13 279.71 151.13 279.71 134.26 275.85 134.26 275.85 140.72"/><path d="M294.11,134.26l-5.73,16.87h4.21l.85-2.65h6.26l.85,2.65h4.21L299,134.26Zm.49,10.6,2-6.19,2,6.19Z"/><polygon points="322.83 143.42 316.32 134.26 313.43 134.26 313.43 151.13 317.29 151.13 317.29 141.97 323.79 151.13 326.68 151.13 326.68 134.26 322.83 134.26 322.83 143.42"/><path d="M345,145.1h4.51c-.61,1.62-2.08,2.6-4.32,2.6-3.27,0-5.3-2.09-5.3-5a5.07,5.07,0,0,1,9.09-3.08l3.27-1.88a8.61,8.61,0,0,0-7.37-3.86,8.77,8.77,0,1,0,.26,17.54c4.73,0,8.32-3.13,8.32-8.28v-1.45H345Z"/><polygon points="366.74 147.41 366.74 144.43 372.77 144.43 372.77 140.77 366.74 140.77 366.74 137.97 373.37 137.97 373.37 134.26 362.89 134.26 362.89 151.13 373.49 151.13 373.49 147.41 366.74 147.41"/></g></g></svg>